<?xml version="1.0" ?><!DOCTYPE svg  PUBLIC '-//W3C//DTD SVG 1.1//EN'  'http://www.w3.org/Graphics/SVG/1.1/DTD/svg11.dtd'><svg enable-background="new 0 0 512 512" height="512px" id="Layer_1" version="1.1" viewBox="0 0 512 512" width="512px" xml:space="preserve" xmlns="http://www.w3.org/2000/svg" xmlns:xlink="http://www.w3.org/1999/xlink"><path d="M511.999,432c0,44.183-35.816,80-80,80H80c-44.183,0-80-35.817-80-80V80C0,35.817,35.817,0,80,0h351.999  c44.184,0,80,35.817,80,80V432z" fill="#CB2028"/><path d="M1584.535,1445.331l-0.8-0.801C1583.949,1444.857,1584.223,1445.124,1584.535,1445.331z" fill="#FFFFFF"/><path d="M369.97,95.215c0,0,40.893,56.549,40.893,92.393c0,26.748-4.413,51.489-12.55,73.059l-20.44-20.44  c7.509-14.157,11.712-29.955,11.712-46.623c0-60.753-55.738-110.004-124.494-110.004s-124.494,49.25-124.494,110.004  c0,11.855,2.131,23.268,6.058,33.967l-23.298,41.865l95.859,92.372c-2.059,8.027-3.814,14.794-4.646,17.819  c-9.953,36.106-46.248,75.438-46.248,75.438L225.334,512h206.665c44.184,0,80-35.817,80-80V237.124L369.97,95.215z" fill="#681319"/><path d="M265.376,55.956c-109.185,0-164.236,78.282-164.236,143.559c0,39.523,14.963,74.688,47.058,87.794  c5.263,2.15,9.979,0.075,11.506-5.752c1.062-4.031,3.571-14.207,4.695-18.443c1.537-5.761,0.94-7.783-3.306-12.807  c-9.255-10.917-15.168-25.052-15.168-45.064c0-58.077,43.451-110.068,113.144-110.068c61.714,0,95.621,37.708,95.621,88.071  c0,66.258-29.325,122.18-72.859,122.18c-24.043,0-42.038-19.881-36.269-44.264c6.907-29.112,20.286-60.531,20.286-81.546  c0-18.81-10.095-34.499-30.993-34.499c-24.576,0-44.317,25.422-44.317,59.482c0,21.688,7.328,36.361,7.328,36.361  s-25.149,106.563-29.558,125.226c-8.783,37.165-1.321,82.729-0.69,87.332c0.37,2.726,3.874,3.375,5.463,1.313  c2.264-2.958,31.536-39.097,41.489-75.203c2.813-10.224,16.163-63.166,16.163-63.166c7.985,15.231,31.319,28.645,56.136,28.645  c73.875,0,123.994-67.352,123.994-157.497C410.862,119.437,353.126,55.956,265.376,55.956z" fill="#FFFFFF"/></svg>